<svg width="30" height="30" viewBox="0 0 30 30" fill="none" xmlns="http://www.w3.org/2000/svg">
<path fill-rule="evenodd" clip-rule="evenodd" d="M15 30C23.2843 30 30 23.2843 30 15C30 6.71573 23.2843 0 15 0C6.71573 0 0 6.71573 0 15C0 23.2843 6.71573 30 15 30ZM16.3836 19.54H12.9516V19.176C12.9516 16.03 14.0956 14.6 15.5776 13.274C15.7265 13.1404 15.8726 13.014 16.0135 12.8921C16.8322 12.1842 17.4756 11.6278 17.4756 10.674C17.4756 9.4 16.3576 8.672 15.0316 8.672C13.4196 8.672 12.3276 9.608 12.3016 11.142H8.97359C8.94759 7.762 11.5216 5.5 15.1096 5.5C18.8796 5.5 20.9596 7.996 20.9596 10.7C20.9596 12.026 20.2836 13.482 19.2436 14.444C19.0301 14.637 18.8301 14.813 18.643 14.9775C17.1673 16.2755 16.499 16.8633 16.3836 19.54ZM12.5616 23.154C12.5616 21.958 13.5236 20.996 14.7196 20.996C15.9416 20.996 16.9556 21.958 16.9556 23.18C16.9556 24.402 15.9416 25.364 14.7196 25.364C13.5236 25.364 12.5616 24.35 12.5616 23.154Z"/>
</svg>
