<?xml version="1.0" encoding="UTF-8"?>
<svg id="Calque_2" data-name="Calque 2" xmlns="http://www.w3.org/2000/svg" viewBox="0 0 2000 202.51">
  <defs>
    <style>
      .cls-1 {
        fill: #017F8D;
      }
    </style>
  </defs>
  <g id="Calque_1-2" data-name="Calque 1">
    <path class="cls-1" d="M0,202.45V19.46c2.16,.03,4.33,.21,6.48,.07,24.74-1.56,49.47-3.21,74.21-4.75,28.07-1.74,56.14-3.48,84.22-5.04,30.24-1.69,60.5-3.22,90.75-4.72,20.62-1.03,41.24-1.95,61.86-2.81,17.95-.75,35.91-1.81,53.87-1.9,28.13-.14,56.28-.16,84.38,.84,33.92,1.22,67.81,3.46,101.7,5.47,12.46,.74,24.89,2.02,37.32,3.18,23.01,2.16,46.01,4.53,69.03,6.58,15.25,1.35,30.53,2.46,45.82,3.37,26.9,1.61,53.81,3.85,80.74,4.25,33.45,.49,66.93-.39,100.39-1.13,19.13-.43,38.26-1.56,57.36-2.72,27.23-1.66,54.44-3.57,81.65-5.5,22.06-1.56,44.11-3.42,66.18-4.92,28.89-1.96,57.78-3.99,86.7-5.45,35.9-1.81,71.83-3.96,107.76-4.27,30.76-.26,61.54,1.66,92.3,3,19.45,.85,38.91,2.02,58.3,3.77,30.31,2.74,60.56,6.18,90.85,9.18,18.38,1.82,36.77,3.56,55.18,4.96,28.88,2.19,57.76,4.53,86.68,5.94,29.09,1.42,58.24,2.13,87.36,2.56,44.63,.66,89.24-.08,133.8-3.12,15.28-1.04,30.6-1.6,45.88-2.6,19.75-1.3,39.49-2.83,59.24-4.26V202.45c-2,.02-4,.06-6,.06-662.67,0-1325.34,0-1988.01,0-2,0-4-.04-6-.06Z"/>
  </g>
</svg>